<svg xmlns="http://www.w3.org/2000/svg" viewBox="0 0 296.07 120.95"><defs><style>.cls-1{fill:#fff;}</style></defs><title>Ресурс 6</title><g id="Шар_2" data-name="Шар 2"><g id="Шар_1-2" data-name="Шар 1"><path class="cls-1" d="M2.41,28.77v-24H7.48v9.59h8.45V4.76h5v24h-5V18.91H7.48v9.86Z" transform="translate(-0.81 -3.25)"/><path class="cls-1" d="M33.56,29.14a9.08,9.08,0,0,1-6.69-2.35,8.66,8.66,0,0,1-2.36-6.44,9.9,9.9,0,0,1,2.18-6.77,7.61,7.61,0,0,1,6-2.48,8.56,8.56,0,0,1,3.49.65,5.5,5.5,0,0,1,2.3,1.79A8.13,8.13,0,0,1,39.71,16a9.75,9.75,0,0,1,.39,2.8L40,21.46H29.47q.4,4,5.06,4a12.91,12.91,0,0,0,2.33-.22,16,16,0,0,0,1.83-.42l.64-.23V28.1A13.65,13.65,0,0,1,33.56,29.14ZM29.5,18.44h6q.07-3.76-2.82-3.76T29.5,18.44Z" transform="translate(-0.81 -3.25)"/><path class="cls-1" d="M50.49,28.77V11.47H66.19v17.3h-5V15.49H55.49V28.77Z" transform="translate(-0.81 -3.25)"/><path class="cls-1" d="M80.23,29.14a6.29,6.29,0,0,1-4.12-1.37v8.52h-5V16a1.25,1.25,0,0,0-.35-1,2,2,0,0,0-1.19-.27h-.3V11.47a7.51,7.51,0,0,1,2.55-.37q3.12,0,3.55,2.68A5.58,5.58,0,0,1,77.19,12a5.87,5.87,0,0,1,3.34-.89q3.69,0,5.38,2.42a10.82,10.82,0,0,1,1.69,6.34,11.16,11.16,0,0,1-1.88,6.67A6.34,6.34,0,0,1,80.23,29.14Zm-1.27-4a2.93,2.93,0,0,0,2.57-1.36,6.65,6.65,0,0,0,.92-3.77q0-4.76-3.42-4.76a3.49,3.49,0,0,0-1.64.39,2.92,2.92,0,0,0-1,.75l-.27.4v7.38l.29.18.45.25.54.25a3,3,0,0,0,.74.22A5.07,5.07,0,0,0,79,25.18Z" transform="translate(-0.81 -3.25)"/><path class="cls-1" d="M102.23,28.77V18.83L96,28.77H91.06V11.47h5V21.63l6.34-10.16h4.8v17.3Z" transform="translate(-0.81 -3.25)"/><path class="cls-1" d="M109.65,28.77l5.69-8.85-5.52-8.46h5.37l3.24,5,3.13-5h4.69l-5.53,8.47,5.77,8.83h-5.37l-3.47-5.31-3.34,5.31Z" transform="translate(-0.81 -3.25)"/><path class="cls-1" d="M136,29.14a8.3,8.3,0,0,1-6.29-2.43,9.17,9.17,0,0,1-2.33-6.62,9,9,0,0,1,2.35-6.59,9.4,9.4,0,0,1,12.54,0,9.09,9.09,0,0,1,2.31,6.59,9.16,9.16,0,0,1-2.33,6.64A8.29,8.29,0,0,1,136,29.14Zm0-3.62q3.45,0,3.45-5.47T136,14.72q-3.49,0-3.49,5.33T136,25.52Z" transform="translate(-0.81 -3.25)"/><path class="cls-1" d="M156.33,28.77H148V11.47h8.38a7.39,7.39,0,0,1,4.53,1.17,3.86,3.86,0,0,1,1.54,3.25,3.67,3.67,0,0,1-.65,2.15,4.32,4.32,0,0,1-1.69,1.44A4.47,4.47,0,0,1,162.33,21a3.85,3.85,0,0,1,.84,2.46,4.68,4.68,0,0,1-1.81,3.94A8.08,8.08,0,0,1,156.33,28.77Zm-3.45-10.4h2.35a2.55,2.55,0,0,0,1.69-.52,1.76,1.76,0,0,0,.62-1.43q0-1.81-2.21-1.81h-2.45Zm0,7.24h2.85A2.6,2.6,0,0,0,157.5,25a2,2,0,0,0,.67-1.59,1.86,1.86,0,0,0-.64-1.51,2.74,2.74,0,0,0-1.81-.54h-2.85Z" transform="translate(-0.81 -3.25)"/><path class="cls-1" d="M167.87,36.29l2.74-7.54-6.29-17.28h5.06L173,22.28l3.93-10.81h4.59l-9,24.82Z" transform="translate(-0.81 -3.25)"/><path class="cls-1" d="M195.1,28.77V18.83l-6.24,9.94h-4.93V11.47h5V21.63l6.34-10.16h4.79v17.3Zm-3.19-20a6.12,6.12,0,0,1-4.12-1.41,5.13,5.13,0,0,1-1.64-4.12h3.72A4.79,4.79,0,0,0,190,4.31a2.33,2.33,0,0,0,.62,1.06,1.71,1.71,0,0,0,1.31.54A1.64,1.64,0,0,0,193.5,5,3.82,3.82,0,0,0,194,3.25h3.72A5.11,5.11,0,0,1,196,7.38,6.13,6.13,0,0,1,191.91,8.79Z" transform="translate(-0.81 -3.25)"/><path class="cls-1" d="M207.49,28.77V15.49h-4.83v-4h14.59v4h-4.8V28.77Z" transform="translate(-0.81 -3.25)"/><path class="cls-1" d="M228.14,29.14a9.09,9.09,0,0,1-6.69-2.35,8.66,8.66,0,0,1-2.36-6.44,9.9,9.9,0,0,1,2.18-6.77,7.61,7.61,0,0,1,6-2.48,8.56,8.56,0,0,1,3.49.65,5.5,5.5,0,0,1,2.3,1.79A8.11,8.11,0,0,1,234.3,16a9.75,9.75,0,0,1,.39,2.8l-.13,2.68h-10.5q.4,4,5.06,4a12.9,12.9,0,0,0,2.33-.22,16,16,0,0,0,1.83-.42l.64-.23V28.1A13.65,13.65,0,0,1,228.14,29.14Zm-4.06-10.7h6q.07-3.76-2.82-3.76T224.09,18.44Z" transform="translate(-0.81 -3.25)"/><path class="cls-1" d="M11.63,75a12,12,0,0,1-4-.66,10.46,10.46,0,0,1-3.43-2,9.19,9.19,0,0,1-2.46-3.65,14.49,14.49,0,0,1-.91-5.34,12.09,12.09,0,0,1,3-8.48,10.2,10.2,0,0,1,7.92-3.25,13.15,13.15,0,0,1,2.37.2,9.26,9.26,0,0,1,1.58.39l.47.22v5.77a7.2,7.2,0,0,0-3.48-.81A4.36,4.36,0,0,0,9,59a6.73,6.73,0,0,0-1.25,4.25,7,7,0,0,0,1.21,4.39,4.35,4.35,0,0,0,3.68,1.57,8,8,0,0,0,1.76-.2,7,7,0,0,0,1.38-.42l.47-.19v5.77A9.86,9.86,0,0,1,11.63,75Z" transform="translate(-0.81 -3.25)"/><path class="cls-1" d="M27.86,75A14.06,14.06,0,0,1,26,74.91a5.43,5.43,0,0,1-1.14-.24l-.31-.12V69.07a5.27,5.27,0,0,0,2,.31,3,3,0,0,0,2.1-.82L22,52.11h6.43l3.73,9.64,3.61-9.64h5.8L36,67.16a17.52,17.52,0,0,1-3.31,5.92A6.31,6.31,0,0,1,27.86,75Z" transform="translate(-0.81 -3.25)"/><path class="cls-1" d="M44.88,79.16V68.6h1.72q1.44-1.72,1.91-5.77A99.14,99.14,0,0,0,49,52.11H65.48V68.6H68V79.16h-5.8V74.55H50.68v4.61ZM53,68.6h5.86V57.75H54.66q-.19,4.08-.35,5.61Q53.94,67.25,53,68.6Z" transform="translate(-0.81 -3.25)"/><path class="cls-1" d="M84.07,75a9.53,9.53,0,0,1-7.57-3.13q-2.74-3.13-2.74-8.53a12.9,12.9,0,0,1,2.66-8.51q2.66-3.21,7.65-3.21t7.68,3.17q2.66,3.17,2.66,8.56t-2.79,8.53A9.6,9.6,0,0,1,84.07,75Zm0-5.8q3.42,0,3.42-5.86A10.43,10.43,0,0,0,86.78,59a2.71,2.71,0,0,0-2.68-1.54q-3.45,0-3.45,5.92a10.16,10.16,0,0,0,.74,4.39A2.75,2.75,0,0,0,84.1,69.22Z" transform="translate(-0.81 -3.25)"/><path class="cls-1" d="M112.47,74.55V66.4a11.64,11.64,0,0,1-3.7.56,8.37,8.37,0,0,1-6-2.08q-2.18-2.08-2.18-6.32V52.11h6.58v6.27a2.75,2.75,0,0,0,.72,2.16,3.11,3.11,0,0,0,2.1.63,8.21,8.21,0,0,0,1.41-.11,2.93,2.93,0,0,0,.85-.24l.25-.09V52.11H119V74.55Z" transform="translate(-0.81 -3.25)"/><path class="cls-1" d="M139.16,74.55V64L133,74.55h-6.11V52.11h6.58v11l6.11-11h6.11V74.55Z" transform="translate(-0.81 -3.25)"/><path class="cls-1" d="M153.64,74.55V52.11h6.58v8.15H166V52.11h6.58V74.55H166V66.22h-5.8v8.34Z" transform="translate(-0.81 -3.25)"/><path class="cls-1" d="M190.37,75a12,12,0,0,1-4-.66,10.48,10.48,0,0,1-3.43-2,9.2,9.2,0,0,1-2.46-3.65,14.51,14.51,0,0,1-.91-5.34,12.09,12.09,0,0,1,3-8.48,10.2,10.2,0,0,1,7.92-3.25,13.15,13.15,0,0,1,2.37.2,9.27,9.27,0,0,1,1.58.39l.47.22v5.77a7.2,7.2,0,0,0-3.48-.81A4.36,4.36,0,0,0,187.71,59a6.73,6.73,0,0,0-1.25,4.25,7,7,0,0,0,1.21,4.39,4.36,4.36,0,0,0,3.68,1.57,8,8,0,0,0,1.75-.2,7,7,0,0,0,1.38-.42l.47-.19v5.77A9.85,9.85,0,0,1,190.37,75Z" transform="translate(-0.81 -3.25)"/><path class="cls-1" d="M206.3,74.55V58.07H201v-6h17.24v6h-5.33V74.55Z" transform="translate(-0.81 -3.25)"/><path class="cls-1" d="M224.62,74.55V52.11h7.84q4.45,0,6.61,1.63a5.4,5.4,0,0,1,2.16,4.58,5.48,5.48,0,0,1-2.7,4.61,5.83,5.83,0,0,1,2.6,1.74,4.67,4.67,0,0,1,1,3.15,5.78,5.78,0,0,1-2.49,4.92,11.47,11.47,0,0,1-6.88,1.82ZM231,60.76H233a1.66,1.66,0,0,0,1.88-1.88q0-1.75-2.13-1.75H231Zm0,8.78h1.79a3.06,3.06,0,0,0,1.9-.53,1.77,1.77,0,0,0,.71-1.5q0-1.88-2.41-1.88h-2Z" transform="translate(-0.81 -3.25)"/><path class="cls-1" d="M258.48,75a9.53,9.53,0,0,1-7.57-3.13q-2.74-3.13-2.74-8.53a12.9,12.9,0,0,1,2.66-8.51q2.66-3.21,7.65-3.21t7.68,3.17q2.66,3.17,2.66,8.56T266,71.89A9.6,9.6,0,0,1,258.48,75Zm0-5.8q3.42,0,3.42-5.86a10.42,10.42,0,0,0-.74-4.39,2.71,2.71,0,0,0-2.68-1.54q-3.45,0-3.45,5.92a10.16,10.16,0,0,0,.74,4.39A2.75,2.75,0,0,0,258.51,69.22Z" transform="translate(-0.81 -3.25)"/><path class="cls-1" d="M10.36,116.69H2V99.39H10.4a7.39,7.39,0,0,1,4.53,1.17,3.86,3.86,0,0,1,1.54,3.25,3.67,3.67,0,0,1-.65,2.15,4.32,4.32,0,0,1-1.69,1.44,4.48,4.48,0,0,1,2.25,1.49,3.85,3.85,0,0,1,.84,2.46,4.68,4.68,0,0,1-1.81,3.94A8.08,8.08,0,0,1,10.36,116.69Zm-3.45-10.4H9.26a2.55,2.55,0,0,0,1.69-.52,1.76,1.76,0,0,0,.62-1.43q0-1.81-2.21-1.81H6.91Zm0,7.24H9.76a2.6,2.6,0,0,0,1.78-.59,2,2,0,0,0,.67-1.59,1.86,1.86,0,0,0-.64-1.51,2.74,2.74,0,0,0-1.81-.54H6.91Z" transform="translate(-0.81 -3.25)"/><path class="cls-1" d="M21.07,116.69V103.88a1.24,1.24,0,0,0-.34-1,1.93,1.93,0,0,0-1.11-.3h-.4V99.39A10.87,10.87,0,0,1,22.28,99a4,4,0,0,1,2.87.91,3.85,3.85,0,0,1,.92,2.85v13.92Zm2.21-20.25a2.56,2.56,0,0,1-2-.75,2.66,2.66,0,0,1-.69-1.86,2.41,2.41,0,0,1,2.68-2.58,2.67,2.67,0,0,1,2,.72A2.58,2.58,0,0,1,26,93.79a2.71,2.71,0,0,1-.69,1.89A2.61,2.61,0,0,1,23.28,96.44Z" transform="translate(-0.81 -3.25)"/><path class="cls-1" d="M33.22,116.69v4.43H28.83v-8.45h1.76q1.08-1,1.55-4.13.13-.94.3-3.22t.26-4.09l-.12-1.84H46.23v13.28h2.31v8.45H44.19v-4.43Zm3-7.95a8.23,8.23,0,0,1-1.11,3.92h6.1v-9.25H36.78Q36.51,107.2,36.24,108.74Z" transform="translate(-0.81 -3.25)"/><path class="cls-1" d="M58.67,116.69V99.39h11.8v4H63.67v13.28Z" transform="translate(-0.81 -3.25)"/><path class="cls-1" d="M83.45,117.06a6.29,6.29,0,0,1-4.12-1.37v8.52h-5V103.88a1.25,1.25,0,0,0-.35-1,2,2,0,0,0-1.19-.27h-.3V99.39A7.51,7.51,0,0,1,75,99q3.12,0,3.55,2.68a5.58,5.58,0,0,1,1.83-1.79A5.87,5.87,0,0,1,83.75,99q3.69,0,5.38,2.42a10.82,10.82,0,0,1,1.69,6.34A11.16,11.16,0,0,1,89,114.44,6.34,6.34,0,0,1,83.45,117.06Zm-1.27-4a2.93,2.93,0,0,0,2.57-1.36,6.65,6.65,0,0,0,.92-3.77q0-4.76-3.42-4.76a3.49,3.49,0,0,0-1.64.39,2.92,2.92,0,0,0-1,.75l-.27.4v7.38l.29.18.45.25.54.25a3,3,0,0,0,.74.22A5.07,5.07,0,0,0,82.18,113.1Z" transform="translate(-0.81 -3.25)"/><path class="cls-1" d="M102,117.06a8.3,8.3,0,0,1-6.29-2.43A9.17,9.17,0,0,1,93.34,108a9,9,0,0,1,2.35-6.59,9.4,9.4,0,0,1,12.54,0,10.58,10.58,0,0,1,0,13.23A8.29,8.29,0,0,1,102,117.06Zm0-3.62q3.45,0,3.45-5.47T102,102.64q-3.49,0-3.49,5.33T102,113.44Z" transform="translate(-0.81 -3.25)"/><path class="cls-1" d="M121.89,115.75l-3.84-9.93-.33,10.88H113.6l.64-17.3h5.9l4.09,10.6,4-10.6h5.87l.64,17.3h-4.66l-.35-11.37-3.9,10.44Z" transform="translate(-0.81 -3.25)"/><path class="cls-1" d="M152,117.06a4.07,4.07,0,0,1-2.45-.62,3.28,3.28,0,0,1-1.14-2.06,6.4,6.4,0,0,1-5.26,2.68,5.76,5.76,0,0,1-4.09-1.41,5,5,0,0,1-1.51-3.82,4.85,4.85,0,0,1,1.86-4,8.5,8.5,0,0,1,5.18-1.53l3.05-.07v-.4a3,3,0,0,0-.79-2.3,4,4,0,0,0-2.73-.72,16.06,16.06,0,0,0-2.46.2,17.71,17.71,0,0,0-2,.4l-.7.2V99.92A17,17,0,0,1,144.7,99q4.16,0,6,1.56t1.86,4.91v6.71a1.27,1.27,0,0,0,.37,1.06,1.92,1.92,0,0,0,1.17.29h.34v3.15A7.25,7.25,0,0,1,152,117.06Zm-9-4.21a2.25,2.25,0,0,0,1.51.49,3.9,3.9,0,0,0,1.71-.37,4.1,4.1,0,0,0,1.11-.7l.3-.37v-2.75l-1.81,0q-3.39.13-3.39,2.28A1.73,1.73,0,0,0,143,112.85Z" transform="translate(-0.81 -3.25)"/><path class="cls-1" d="M160.81,116.69v4.43h-4.39v-8.45h1.76q1.08-1,1.55-4.13.13-.94.3-3.22t.26-4.09l-.12-1.84h13.65v13.28h2.31v8.45h-4.36v-4.43Zm3-7.95a8.22,8.22,0,0,1-1.11,3.92h6.1v-9.25h-4.46Q164.1,107.2,163.83,108.74Z" transform="translate(-0.81 -3.25)"/><path class="cls-1" d="M186.89,117.06a8.64,8.64,0,0,1-6.37-2.36,8.92,8.92,0,0,1-2.38-6.62,9,9,0,0,1,2.4-6.61A8.71,8.71,0,0,1,187.06,99a12.66,12.66,0,0,1,2.23.18,6.67,6.67,0,0,1,1.46.39l.44.17v3.66a7.77,7.77,0,0,0-3.39-.7,4.19,4.19,0,0,0-3.35,1.36,5.75,5.75,0,0,0-1.17,3.87,6.25,6.25,0,0,0,1.14,4,4.1,4.1,0,0,0,3.39,1.41,9.93,9.93,0,0,0,1.73-.15,7.4,7.4,0,0,0,1.29-.32l.4-.17v3.55A10,10,0,0,1,186.89,117.06Z" transform="translate(-0.81 -3.25)"/><path class="cls-1" d="M194.75,116.69V99.39h5v5.4h2.88a7.31,7.31,0,0,1,5.06,1.58,5.42,5.42,0,0,1,1.74,4.22,5.73,5.73,0,0,1-1.86,4.36,7.38,7.38,0,0,1-5.25,1.74Zm5-3.49h1.74a3,3,0,0,0,2.08-.69,2.49,2.49,0,0,0,.77-2,2.16,2.16,0,0,0-.74-1.69,3.08,3.08,0,0,0-2.11-.65h-1.74Z" transform="translate(-0.81 -3.25)"/><path class="cls-1" d="M222.79,116.69l-4.38-6.78h-1.25v6.78h-5V99.39h5v6.51h1.25l4.28-6.51h5.16l-5.33,8.18,5.83,9.12Z" transform="translate(-0.81 -3.25)"/><path class="cls-1" d="M237.62,117.06a8.3,8.3,0,0,1-6.29-2.43A9.17,9.17,0,0,1,229,108a9,9,0,0,1,2.35-6.59,9.4,9.4,0,0,1,12.54,0,10.58,10.58,0,0,1,0,13.23A8.29,8.29,0,0,1,237.62,117.06Zm0-3.62q3.45,0,3.45-5.47t-3.45-5.33q-3.49,0-3.49,5.33T237.62,113.44Z" transform="translate(-0.81 -3.25)"/><path class="cls-1" d="M257.45,117.06a8.64,8.64,0,0,1-6.37-2.36,8.92,8.92,0,0,1-2.38-6.62,9,9,0,0,1,2.4-6.61A8.71,8.71,0,0,1,257.62,99a12.66,12.66,0,0,1,2.23.18,6.67,6.67,0,0,1,1.46.39l.44.17v3.66a7.77,7.77,0,0,0-3.39-.7,4.19,4.19,0,0,0-3.35,1.36,5.75,5.75,0,0,0-1.17,3.87,6.25,6.25,0,0,0,1.14,4,4.1,4.1,0,0,0,3.39,1.41,9.93,9.93,0,0,0,1.73-.15,7.4,7.4,0,0,0,1.29-.32l.4-.17v3.55A10,10,0,0,1,257.45,117.06Z" transform="translate(-0.81 -3.25)"/><path class="cls-1" d="M268.82,116.69V103.41H264v-4h14.59v4h-4.8v13.28Z" transform="translate(-0.81 -3.25)"/><path class="cls-1" d="M282.45,116.69V103.88a1.24,1.24,0,0,0-.33-1,1.93,1.93,0,0,0-1.11-.3h-.4V99.39a10.87,10.87,0,0,1,3.05-.37,4,4,0,0,1,2.87.91,3.85,3.85,0,0,1,.92,2.85v13.92Zm2.21-20.25a2.56,2.56,0,0,1-2-.75,2.66,2.66,0,0,1-.69-1.86,2.41,2.41,0,0,1,2.68-2.58,2.67,2.67,0,0,1,2,.72,2.58,2.58,0,0,1,.67,1.83,2.71,2.71,0,0,1-.69,1.89A2.61,2.61,0,0,1,284.66,96.44Z" transform="translate(-0.81 -3.25)"/><path class="cls-1" d="M294,117.06a2.65,2.65,0,0,1-2-.84,3,3,0,0,1-.77-2.11,2.84,2.84,0,0,1,.77-2,2.7,2.7,0,0,1,2-.8,2.75,2.75,0,0,1,2.08.8,2.84,2.84,0,0,1,.77,2,3,3,0,0,1-.77,2.11A2.69,2.69,0,0,1,294,117.06Zm-2-8.12-.5-16.26h4.93l-.54,16.26Z" transform="translate(-0.81 -3.25)"/></g></g></svg>