<svg xmlns="http://www.w3.org/2000/svg" viewBox="0 0 374.36 361.95"><defs><style>.cls-1{opacity:0.1;}.cls-2{fill:#d84a19;}</style></defs><title>Ресурс 7</title><g id="Шар_2" data-name="Шар 2"><g id="Шар_1-2" data-name="Шар 1"><g class="cls-1"><path class="cls-2" d="M81.84,392.66,17.69,328l16.7-16.58L88,323.08,55.59,290.4l16.7-16.58,64.16,64.62L119.75,355l-53.2-11.17,32,32.22ZM138.28,268q-.08,9.58-8.2,17.64t-17.75,8q-9.62,0-17.78-8.25t-8-17.75q.12-9.53,8.25-17.6t17.7-8.08q9.58,0,17.64,8.11Q138.36,258.42,138.28,268Zm-18.51,7.26q3.34-3.31-4.19-10.9-3.85-3.88-6.28-4.79a4,4,0,0,0-5.14,5.11q.89,2.43,4.74,6.31Q116.43,278.57,119.77,275.26Zm12.07,44.47L118.4,306.19,150,274.83l13.44,13.54Z" transform="translate(-17.69 -30.71)"/><path class="cls-2" d="M213.6,217.23q10.13,10.2,10.35,23.51t-10.7,24.15Q201.42,276.63,187,275.37t-28.68-15.62q-17.11-17.24-19.16-34.65t13-32.37a54.73,54.73,0,0,1,7.94-6.54,45.59,45.59,0,0,1,6.49-3.84l2.43-1,15.68,15.79q-7.92,2.49-16,10.46-11.28,11.2-3.41,23.46.75-7.55,7.61-14.36,9.48-9.41,20.31-9.24T213.6,217.23Zm-21.67,34.86a9,9,0,0,0,6.26-2.72,8.81,8.81,0,0,0,2.72-6.2q.1-3.6-3.93-7.66t-7.63-4a8.8,8.8,0,0,0-6.21,2.68,9,9,0,0,0-2.77,6.24q-.15,3.64,3.88,7.7T191.93,252.09Z" transform="translate(-17.69 -30.71)"/><path class="cls-2" d="M287.54,188.46l-42,41.67-15.23-15.34.36-25.09a92.46,92.46,0,0,0-.8-15.79,16.09,16.09,0,0,0-4.42-8.78,8.94,8.94,0,0,0-7-3q-3.73.21-7.43,3.88a35.47,35.47,0,0,0-5.87,7.71,38.72,38.72,0,0,0-3.26,6.91l-.73,2.69-15.68-15.79q.09-1.17.46-3.15t3.63-7.9A50.78,50.78,0,0,1,198.48,145q10.92-10.84,21.94-10.49t20.42,9.83q11.2,11.28,11,33.13l-.15,16.1,20.58-20.43Z" transform="translate(-17.69 -30.71)"/><path class="cls-2" d="M316,162.84a77.48,77.48,0,0,1-9.52,8.1,43.85,43.85,0,0,1-7.35,4.51l-2.52,1.07L281,160.73q9.18-3.38,18.3-12.43,8.84-8.78,2.84-14.83-5.38-5.42-14.13,3.28l-6.77,6.72-13.89-14,5.69-5.65q7-7,1.84-12.22a6.85,6.85,0,0,0-5.7-2.22q-3.19.3-6.53,3.62a31.8,31.8,0,0,0-6.15,8.52,32.21,32.21,0,0,0-2.91,7.63L253,132l-15.68-15.79q.18-1.26.69-3.37a43.57,43.57,0,0,1,3.54-7.9,42.36,42.36,0,0,1,7.73-10.45q11-10.93,21.85-11.66A23.29,23.29,0,0,1,290,90.17a21,21,0,0,1,5.67,9.87,20,20,0,0,1-.35,11A21,21,0,0,1,309,109.53a25.31,25.31,0,0,1,12.25,7.1q9.41,9.48,8,22T316,162.84Z" transform="translate(-17.69 -30.71)"/><path class="cls-2" d="M392,84.7l-42,41.67L334.85,111l.36-25.09a92.34,92.34,0,0,0-.8-15.79A16.08,16.08,0,0,0,330,61.36a8.94,8.94,0,0,0-7-3q-3.73.21-7.43,3.88a35.41,35.41,0,0,0-5.87,7.71,38.65,38.65,0,0,0-3.26,6.91l-.73,2.7L290.05,63.73q.09-1.17.46-3.15t3.63-7.9A50.83,50.83,0,0,1,303,41.21q10.92-10.84,21.94-10.49t20.42,9.83q11.2,11.28,11,33.13l-.15,16.1,20.58-20.43Z" transform="translate(-17.69 -30.71)"/></g></g></g></svg>